<?xml version="1.0" encoding="UTF-8" standalone="no"?>
<svg width="100%" height="100%" viewBox="0 0 90 28" version="1.1" xmlns="http://www.w3.org/2000/svg" xmlnsXlink="http://www.w3.org/1999/xlink" xmlSpace="preserve"  style="fill-rule:evenodd;clip-rule:evenodd;stroke-linejoin:round;stroke-miterlimit:2;">
    <g transform="matrix(1,0,0,1,-169,-162)">
        <g id="rcld-outline">
            <g transform="matrix(35.9804,0,0,35.9804,167.446,189.101)">
                <path d="M0.42,-0L0.274,-0.265L0.233,-0.265L0.233,-0L0.062,-0L0.062,-0.702L0.349,-0.702C0.404,-0.702 0.452,-0.692 0.491,-0.673C0.53,-0.654 0.559,-0.627 0.578,-0.594C0.597,-0.56 0.607,-0.522 0.607,-0.481C0.607,-0.434 0.594,-0.393 0.568,-0.356C0.541,-0.319 0.502,-0.293 0.451,-0.278L0.613,-0L0.42,-0ZM0.233,-0.386L0.339,-0.386C0.37,-0.386 0.394,-0.394 0.41,-0.409C0.425,-0.424 0.433,-0.446 0.433,-0.474C0.433,-0.501 0.425,-0.522 0.41,-0.537C0.394,-0.552 0.37,-0.56 0.339,-0.56L0.233,-0.56L0.233,-0.386Z" style="fill:none;fill-rule:nonzero;stroke:white;stroke-width:0.03px;"/>
            </g>
            <g transform="matrix(35.9804,0,0,35.9804,190.265,188.921)">
                <path d="M0.033,-0.352C0.033,-0.421 0.048,-0.483 0.078,-0.538C0.108,-0.592 0.15,-0.634 0.204,-0.665C0.257,-0.695 0.318,-0.71 0.386,-0.71C0.469,-0.71 0.541,-0.688 0.6,-0.644C0.659,-0.6 0.699,-0.54 0.719,-0.464L0.531,-0.464C0.517,-0.493 0.497,-0.516 0.472,-0.531C0.446,-0.546 0.417,-0.554 0.384,-0.554C0.331,-0.554 0.289,-0.536 0.256,-0.499C0.223,-0.462 0.207,-0.413 0.207,-0.352C0.207,-0.291 0.223,-0.242 0.256,-0.205C0.289,-0.168 0.331,-0.15 0.384,-0.15C0.417,-0.15 0.446,-0.158 0.472,-0.173C0.497,-0.188 0.517,-0.211 0.531,-0.24L0.719,-0.24C0.699,-0.164 0.659,-0.104 0.6,-0.061C0.541,-0.017 0.469,0.005 0.386,0.005C0.318,0.005 0.257,-0.01 0.204,-0.041C0.15,-0.071 0.108,-0.113 0.078,-0.167C0.048,-0.221 0.033,-0.283 0.033,-0.352Z" style="fill:none;fill-rule:nonzero;stroke:white;stroke-width:0.03px;"/>
            </g>
            <g transform="matrix(-35.9804,0,0,35.9804,234.356,189.101)">
                <path d="M0.233,-0.148L0.486,-0.148L0.486,0L0.062,-0L0.062,-0.702L0.233,-0.702L0.233,-0.148Z" style="fill:none;fill-rule:nonzero;stroke:white;stroke-width:0.03px;"/>
            </g>
            <g transform="matrix(35.9804,0,0,35.9804,232.845,189.101)">
                <path d="M0.325,-0.702C0.399,-0.702 0.464,-0.687 0.519,-0.658C0.574,-0.629 0.617,-0.588 0.648,-0.535C0.678,-0.482 0.693,-0.42 0.693,-0.351C0.693,-0.282 0.678,-0.221 0.648,-0.168C0.617,-0.115 0.574,-0.073 0.519,-0.044C0.463,-0.015 0.398,-0 0.325,-0L0.062,-0L0.062,-0.702L0.325,-0.702ZM0.314,-0.148C0.379,-0.148 0.429,-0.166 0.465,-0.201C0.501,-0.236 0.519,-0.286 0.519,-0.351C0.519,-0.416 0.501,-0.466 0.465,-0.502C0.429,-0.538 0.379,-0.556 0.314,-0.556L0.233,-0.556L0.233,-0.148L0.314,-0.148Z" style="fill:none;fill-rule:nonzero;stroke:white;stroke-width:0.03px;"/>
            </g>
        </g>
    </g>
</svg>
